<?xml version="1.0" encoding="utf-8"?>
<!-- Generator: Adobe Illustrator 24.0.2, SVG Export Plug-In . SVG Version: 6.00 Build 0)  -->
<svg version="1.1" id="Layer_1" xmlns="http://www.w3.org/2000/svg" xmlns:xlink="http://www.w3.org/1999/xlink" x="0px" y="0px"
	 viewBox="0 0 146.6 47.2" style="enable-background:new 0 0 146.6 47.2;" xml:space="preserve">
<style type="text/css">
	.st0{display:none;}
	.st1{display:inline;}
	.st2{fill-rule:evenodd;clip-rule:evenodd;fill:#F8DD14;}
</style>
<g class="st0">
	<path class="st1" d="M56.5,4.8h2.3v12.6c0,1.3,0.1,2.1,0.3,2.6c0.2,0.4,0.7,0.6,1.4,0.6s1.2-0.2,1.4-0.5c0.2-0.4,0.3-1.1,0.3-2.3
		V4.8h2.4v12.9c0,1.9-0.3,3.2-0.9,3.9c-0.7,0.8-1.8,1.2-3.2,1.2c-1.6,0-2.7-0.5-3.4-1.5c-0.5-0.7-0.7-2-0.7-3.9
		C56.5,17.4,56.5,4.8,56.5,4.8z"/>
	<path class="st1" d="M72.8,5.2v2.3c-0.7-0.5-1.4-0.8-2-0.8c-0.6,0-1.2,0.2-1.6,0.7c-0.4,0.4-0.6,1-0.6,1.7c0,0.6,0.1,1.2,0.4,1.6
		c0.2,0.2,0.4,0.6,0.7,0.9c0.3,0.4,0.8,0.8,1.3,1.4c1,1,1.6,1.9,2,2.6c0.3,0.7,0.5,1.6,0.5,2.6c0,1.4-0.4,2.5-1.2,3.4
		c-0.8,0.9-1.8,1.3-3,1.3c-1,0-1.9-0.3-2.6-0.8v-2.4c0.8,0.6,1.6,0.9,2.3,0.9c0.7,0,1.2-0.2,1.5-0.6c0.4-0.4,0.6-1,0.6-1.8
		c0-0.6-0.1-1.2-0.4-1.7c-0.2-0.2-0.3-0.5-0.6-0.9c-0.3-0.3-0.6-0.7-1-1.1c-0.6-0.6-1.1-1.1-1.5-1.6S67,12,66.8,11.6
		c-0.4-0.7-0.6-1.5-0.6-2.6c0-1.4,0.4-2.5,1.1-3.3c0.7-0.8,1.7-1.2,2.9-1.2C71.2,4.5,72,4.8,72.8,5.2z"/>
	<path class="st1" d="M75,4.8h6.4v2h-4v5.6H81v2h-3.5v6.1h4v2H75V4.8z"/>
	<path class="st1" d="M83,4.8h3.2c1.3,0,2.3,0.3,2.9,0.9c0.8,0.8,1.2,2,1.2,3.7c0,1.3-0.2,2.3-0.6,3.1s-1,1.2-1.8,1.4l3.3,8.7h-2.4
		l-3.3-8.7v8.7H83L83,4.8L83,4.8z M85.4,12.7c0.9,0,1.6-0.2,2-0.6c0.4-0.4,0.6-1.2,0.6-2.2c0-0.6,0-1-0.1-1.4s-0.2-0.7-0.4-1
		S87.1,7,86.8,6.9c-0.3-0.1-0.6-0.2-1-0.2h-0.4L85.4,12.7L85.4,12.7z"/>
</g>
<g class="st0">
	<path class="st1" d="M56.5,24.6h2.4v15.8h3.9v2h-6.3C56.5,42.4,56.5,24.6,56.5,24.6z"/>
	<path class="st1" d="M72.6,34c0,3.1-0.3,5.4-1.1,6.7c-0.7,1.3-1.9,2-3.5,2c-1.7,0-2.9-0.7-3.7-2.1c-0.7-1.4-1-3.9-1-7.4
		c0-3.2,0.3-5.4,1-6.7c0.7-1.3,1.9-2,3.6-2c1.5,0,2.6,0.5,3.3,1.5c0.5,0.7,0.8,1.7,1,2.9C72.5,30,72.6,31.7,72.6,34z M70.1,34.2
		c0-3.1-0.1-5.1-0.4-6.1c-0.3-1-0.8-1.5-1.7-1.5c-0.8,0-1.4,0.5-1.7,1.4c-0.3,0.9-0.4,2.8-0.4,5.6c0,2.6,0.2,4.4,0.4,5.4
		c0.3,1,0.9,1.4,1.7,1.4c0.8,0,1.4-0.5,1.7-1.3C69.9,38.2,70.1,36.6,70.1,34.2z"/>
	<path class="st1" d="M83.3,34c0,3.1-0.3,5.4-1.1,6.7c-0.7,1.3-1.9,2-3.5,2c-1.7,0-2.9-0.7-3.7-2.1c-0.7-1.4-1.1-3.9-1.1-7.4
		c0-3.2,0.3-5.4,1-6.7c0.7-1.3,1.9-2,3.6-2c1.5,0,2.6,0.5,3.3,1.5c0.5,0.7,0.8,1.7,1,2.9C83.2,30,83.3,31.7,83.3,34z M80.8,34.2
		c0-3.1-0.1-5.1-0.4-6.1c-0.3-1-0.8-1.5-1.7-1.5c-0.8,0-1.4,0.5-1.7,1.4c-0.3,0.9-0.4,2.8-0.4,5.6c0,2.6,0.2,4.4,0.4,5.4
		c0.3,1,0.9,1.4,1.7,1.4c0.8,0,1.4-0.5,1.7-1.3C80.7,38.2,80.8,36.6,80.8,34.2z"/>
	<path class="st1" d="M85.1,24.6h2.4v8.6l3.3-8.6h2.4l-3.5,8.6l3.8,9.2h-2.7l-3.3-9.2v9.2h-2.4L85.1,24.6L85.1,24.6z"/>
	<path class="st1" d="M94.4,24.6h2.3v12.6c0,1.3,0.1,2.1,0.3,2.6c0.2,0.4,0.7,0.6,1.4,0.6c0.7,0,1.2-0.2,1.4-0.5
		c0.2-0.4,0.3-1.1,0.3-2.3V24.6h2.3v12.9c0,1.9-0.3,3.2-0.9,3.9c-0.7,0.8-1.8,1.2-3.2,1.2c-1.6,0-2.7-0.5-3.4-1.5
		c-0.4-0.7-0.7-2-0.7-3.9V24.6z"/>
	<path class="st1" d="M104.8,24.6h3.2c1.5,0,2.6,0.4,3.3,1.1c0.7,0.8,1,2,1,3.7c0,2.4-0.7,3.9-2.1,4.6c-0.7,0.3-1.7,0.5-3,0.5v7.9
		h-2.4C104.8,42.4,104.8,24.6,104.8,24.6z M107.2,32.5c1,0,1.7-0.2,2.1-0.6c0.4-0.4,0.6-1.1,0.6-2.2c0-1.1-0.2-1.8-0.6-2.3
		c-0.4-0.5-0.9-0.7-1.7-0.7h-0.3L107.2,32.5L107.2,32.5z"/>
</g>
<g id="home" transform="translate(-160.000000, -32.000000)" class="st0">
	<g id="Logo-Copy" transform="translate(160.000000, 32.000000)" class="st1">
		<path id="Fill-1" class="st2" d="M1.3,45.8h50.6V1.5H1.3V45.8z M25.5,15.1c0,1.9,0,3.8-1.7,5.5c-2,2.1-5.7,2.8-8.6,2.8
			c-1.4,0-2.7-0.1-4.1-0.4c-0.9-0.2-2.1-0.6-3.3-1.3c-3-1.9-3.1-4.4-3.1-6.5V4.5h4.8v10.8c0,1.6,0.4,3,2.2,3.8
			c1.6,0.7,3,0.6,4.4,0.6c1.8-0.2,3-0.6,3.8-1.5c0.5-0.5,0.9-1.1,0.8-2.9V4.5h4.8V15.1L25.5,15.1z M25.7,37.4c0,1.1-0.3,2.2-0.9,3.1
			c-1.6,2.2-4.2,2.2-6.1,2.2H4.8V24.4h13.1c2.1,0,4.6,0.1,6,1.9c0.7,0.9,0.8,1.9,0.8,2.6c0,0.5-0.1,1.5-0.8,2.4
			c-0.8,1-1.9,1.3-2.5,1.5C22.6,33,25.7,33.7,25.7,37.4L25.7,37.4z M42.7,15.2l5.9,7.6h-5.7l-5.2-7.4h-5.5v7.4h-4.9V4.5h13.3
			c2.2,0,4.2,0.2,5.8,1.9c1,1.1,1.3,2.5,1.3,3.5c0,1.4-0.5,3.1-1.9,4C44.8,14.8,43.5,15.1,42.7,15.2L42.7,15.2z M48.7,42.7h-4.8
			l-9.6-10.3c-1-1.1-1.4-1.6-2.5-2.9c0.1,1.4,0.1,1.7,0.2,3.1v10.1h-4.6V24.4h4.8l9.5,10.2c1.2,1.3,1.4,1.5,2.6,3
			c-0.2-1.7-0.2-2.2-0.2-3.8v-9.4h4.6L48.7,42.7L48.7,42.7z M42.8,10.1c0-0.4,0-1-0.4-1.4c-0.4-0.4-0.8-0.9-2.7-0.9h-7.5v4.5h7.7
			C40.9,12.2,42.8,12.1,42.8,10.1L42.8,10.1z M20.6,37c0-2.2-1.9-2.2-2.6-2.2H9.8v4.7h7.6C18.5,39.5,20.6,39.5,20.6,37L20.6,37z
			 M19.8,29.5c0-1.9-1.6-2-2.4-2H9.8v4H17c0.6,0,1.2,0,1.6-0.2C19.8,31,19.8,29.7,19.8,29.5L19.8,29.5z"/>
	</g>
</g>
<g>
	<g>
		<path d="M71.6,9.1c0,0.3,0,0.5,0,0.8c0,4,0.1,8.1,0.1,12.1c0,0.7,0,0.7-0.7,0.7c-1.6,0-1.6,0-1.6-1.6c0-5.1,0-10.2,0-15.3
			c0-0.7,0-0.7,0.8-0.7c1,0,2,0,3,0c0.5,0,0.6,0.2,0.7,0.6c0.4,3.1,0.9,6.2,1.3,9.3c0,0,0,0.1,0.1,0.1c0.1-0.5,0.1-0.9,0.2-1.4
			c0.3-2.2,0.7-4.3,1-6.5c0.1-0.6,0.2-1.1,0.3-1.7c0-0.3,0.2-0.5,0.5-0.5c1.2,0,2.4,0,3.6,0c0.4,0,0.5,0.1,0.5,0.5c0,1.3,0,2.7,0,4
			c0,4.2,0,8.3,0,12.5c0,0.7,0,0.7-0.7,0.7c-0.6,0-1.2,0-1.9,0c-0.5,0-0.6-0.2-0.6-0.7c0-4.1,0.1-8.1,0.1-12.2c0-0.3,0-0.5-0.1-0.8
			c-0.1,0.5-0.2,1.1-0.2,1.6c-0.4,2.5-0.7,4.9-1.1,7.4c-0.2,1.4-0.5,2.8-0.7,4.2c-0.1,0.3-0.2,0.5-0.6,0.4c-0.4,0-0.8,0-1.1,0
			c-0.4,0-0.5-0.1-0.5-0.5c-0.2-1.5-0.5-3-0.7-4.5c-0.3-2-0.6-4-0.9-6c-0.1-0.9-0.3-1.8-0.4-2.7C71.7,9.1,71.6,9.1,71.6,9.1z"/>
		<path d="M111.7,14c0,1.8,0,3.6-0.5,5.3c-0.4,1.5-1,2.8-2.6,3.4c-2.1,0.8-4.5,0.3-5.6-2.2c-0.5-1.3-0.9-2.7-0.9-4.1
			c-0.1-1.7-0.1-3.4,0-5.1c0.1-1.5,0.3-2.9,1-4.3c0.8-1.7,2.2-2.5,4.1-2.4c1.8,0.1,3,1,3.6,2.6c0.8,1.8,0.9,3.8,0.9,5.8
			C111.8,13.4,111.7,13.7,111.7,14z M108.1,13.8C108.1,13.8,108.1,13.8,108.1,13.8c0-1.3,0-2.6,0-3.9c0-0.7-0.2-1.3-0.4-1.9
			c-0.1-0.3-0.5-0.5-0.8-0.5c-0.3,0-0.6,0.3-0.8,0.6c-0.2,0.3-0.3,0.6-0.3,1c-0.1,2.8-0.1,5.5-0.1,8.3c0,0.7,0.2,1.5,0.4,2.2
			c0.1,0.4,0.4,0.7,0.8,0.7c0.4,0,0.7-0.2,0.8-0.6c0.2-0.6,0.4-1.3,0.4-1.9C108.1,16.4,108.1,15.1,108.1,13.8z"/>
		<path d="M86.7,15.6c0,0.9,0,1.7,0,2.6c0,1.3,0,2.7,0,4c0,0.4-0.1,0.5-0.5,0.5c-0.7,0-1.5,0-2.2,0c-0.4,0-0.5-0.2-0.5-0.5
			c0-2,0-4,0-6c0-3.5,0-7,0-10.5c0-0.5,0.1-0.6,0.6-0.6c1.4,0,2.7,0,4.1,0c1.4,0,2.6,0.4,3.4,1.6c0.7,1,0.8,2.2,0.8,3.3
			c0,0.9-0.1,1.9-0.3,2.8c-0.4,1.6-1.8,2.7-3.4,2.8C88.1,15.7,87.4,15.6,86.7,15.6z M86.7,10.3c0,0.8,0,1.5,0,2.3
			c0,0.1,0.1,0.4,0.2,0.4c0.8,0.2,1.8-0.3,2-1.1c0.2-0.8,0.2-1.6,0.2-2.3c0-1.1-0.8-1.8-1.9-1.8c-0.4,0-0.6,0.1-0.5,0.5
			C86.8,8.9,86.7,9.6,86.7,10.3z"/>
		<path d="M63.1,12.3c0.9,0,1.7,0,2.5,0c0.4,0,0.6,0.1,0.6,0.6c0,0.5,0,1.1,0,1.7c0,0.4-0.2,0.5-0.5,0.5c-0.7,0-1.4,0-2.1,0
			c-0.2,0-0.4,0-0.4,0.3c0,1.6,0,3.1,0,4.7c0,0,0,0.1,0.1,0.2c1.1,0,2.3,0,3.5,0c0.7,0,0.8,0,0.8,0.7c0,0.4,0,0.8,0,1.2
			c0,0.3-0.1,0.5-0.4,0.5c-2.2,0-4.4,0-6.6,0c-0.4,0-0.4-0.2-0.4-0.5c0-2.5,0-4.9,0-7.4c0-3,0-6,0-9c0-0.5,0.1-0.7,0.6-0.7
			c2,0,4,0,6.1,0c0.5,0,0.6,0.2,0.6,0.6c0,0.4,0,0.9,0,1.3c0,0.4-0.1,0.5-0.5,0.5c-1,0-2.1,0-3.1,0c-0.4,0-0.5,0.1-0.5,0.5
			C63.1,9.4,63.1,10.8,63.1,12.3z"/>
		<path d="M125.8,7.5c0,1.6,0,3.2,0,4.8c0.8,0,1.6,0,2.5,0c0.5,0,0.6,0.1,0.6,0.6c0,0.6,0,1.1,0,1.7c0,0.3-0.1,0.4-0.4,0.4
			c-0.7,0-1.5,0-2.2,0c-0.3,0-0.4,0.1-0.4,0.4c0,1.4,0,2.9,0,4.3c0,0.4,0.1,0.5,0.5,0.5c1.1,0,2.1,0,3.2,0c0.6,0,0.7,0,0.7,0.7
			c0,0.4,0,0.9,0,1.3c0,0.3-0.1,0.4-0.4,0.4c-2.2,0-4.4,0-6.6,0c-0.4,0-0.4-0.2-0.4-0.5c0-1.7,0-3.3,0-5c0-3.8,0-7.7,0-11.5
			c0-0.5,0.2-0.7,0.7-0.7c2,0,4,0,6.1,0c0.4,0,0.6,0.1,0.6,0.6c0,0.4,0,0.9,0,1.3c0,0.5-0.1,0.6-0.6,0.6
			C128.2,7.5,127.1,7.5,125.8,7.5z"/>
		<path d="M135.4,12.3c0.9,0,1.7,0,2.5,0c0.4,0,0.6,0.1,0.6,0.6c0,0.5,0,1.1,0,1.6c0,0.5-0.2,0.6-0.6,0.6c-0.8,0-1.6,0-2.4,0
			c0,1.7,0,3.5,0,5.2c1.2,0,2.3,0,3.5,0c0.7,0,0.8,0,0.8,0.8c0,0.4,0,0.8,0,1.2c0,0.3-0.1,0.5-0.4,0.5c-2.2,0-4.4,0-6.6,0
			c-0.4,0-0.4-0.2-0.4-0.5c0-2.7,0-5.4,0-8.1c0-2.8,0-5.6,0-8.4c0-0.4,0.1-0.6,0.6-0.6c2.1,0,4.1,0,6.2,0c0.4,0,0.6,0.1,0.5,0.5
			c0,0.5,0,1,0,1.4c0,0.4-0.1,0.5-0.5,0.5c-1,0-2.1,0-3.1,0c-0.4,0-0.5,0.1-0.5,0.5C135.4,9.4,135.4,10.8,135.4,12.3z"/>
		<path d="M116.9,12.1c0.5-2.1,1.1-4.2,1.6-6.3c0.1-0.5,0.3-0.7,0.8-0.7c0.6,0.1,1.2,0,1.8,0c0,0.1,0,0.2,0,0.3
			c-0.6,2.3-1.3,4.6-1.9,6.9c-0.3,1.1-0.6,2.1-0.9,3.2c-0.1,0.3-0.1,0.6-0.1,1c0,1.9,0,3.7,0,5.6c0,0.5-0.1,0.6-0.6,0.6
			c-0.7,0-1.3,0-2,0c-0.4,0-0.6-0.2-0.6-0.6c0-1.8,0.1-3.6,0-5.3c-0.1-1.1-0.3-2.1-0.6-3.2c-0.6-2.3-1.2-4.6-1.8-6.8
			c-0.1-0.5-0.3-1.1-0.4-1.7c0.6,0,1.1,0,1.7,0c0.2,0,0.5,0,0.7,0c0.8,0,0.8,0,1,0.8C116,8,116.4,10,116.9,12.1
			C116.9,12.1,116.9,12.1,116.9,12.1z"/>
		<path d="M94.3,13.9c0-2.7,0-5.4,0-8.2c0-0.5,0.1-0.7,0.6-0.7c0.6,0,1.3,0,1.9,0c0.5,0,0.6,0.2,0.6,0.6c0,4.6,0,9.3,0,13.9
			c0,0.5,0.1,0.7,0.6,0.6c1,0,2,0,3,0c0.4,0,0.6,0.1,0.5,0.5c0,0.5,0,1,0,1.4c0,0.3-0.1,0.5-0.4,0.5c-2.2,0-4.3,0-6.5,0
			c-0.5,0-0.4-0.3-0.4-0.6C94.3,19.4,94.3,16.6,94.3,13.9z"/>
	</g>
	<g>
		<path d="M124.7,33.8c0.1,1.8,0.1,3.6-0.4,5.3c-0.4,1.5-1,2.8-2.6,3.4c-2.1,0.8-4.6,0.3-5.6-2.2c-0.5-1.3-0.9-2.7-0.9-4.1
			c-0.1-1.7-0.1-3.3,0-5c0.1-1.5,0.3-3,1-4.4c0.8-1.7,2.2-2.4,4.1-2.4c1.8,0.1,3,1,3.6,2.6c0.4,1.2,0.7,2.4,0.8,3.7
			C124.8,31.7,124.7,32.7,124.7,33.8z M121.2,33.6C121.2,33.6,121.2,33.6,121.2,33.6c0-1.3,0-2.6,0-3.9c0-0.7-0.2-1.3-0.4-1.9
			c-0.1-0.2-0.5-0.5-0.8-0.5c-0.2,0-0.6,0.3-0.7,0.5c-0.2,0.3-0.3,0.6-0.3,1c-0.1,2.8-0.1,5.5-0.1,8.3c0,0.7,0.2,1.5,0.4,2.2
			c0.1,0.4,0.4,0.7,0.8,0.7c0.5,0,0.7-0.2,0.8-0.6c0.2-0.6,0.3-1.3,0.4-1.9C121.2,36.2,121.2,34.9,121.2,33.6z"/>
		<path d="M85,42.5c-1,0-1.9,0-2.8,0c-0.1,0-0.4-0.3-0.4-0.5c-0.3-1.1-0.5-2.3-0.7-3.4c-0.2-1.1-0.4-2.2-0.6-3.3
			c-0.1-0.5-0.5-0.4-0.8-0.4c-0.4,0-0.3,0.2-0.3,0.5c0,2.2,0,4.3,0,6.5c0,0.7,0,0.7-0.7,0.7c-0.7,0-1.3,0-2,0
			c-0.4,0-0.5-0.1-0.5-0.5c0-5.5,0-11.1,0-16.6c0-0.4,0.1-0.5,0.5-0.5c1.5,0,3,0,4.5,0c1.3,0.1,2.4,0.5,3.1,1.6
			c0.3,0.5,0.6,1.1,0.6,1.7c0.2,1.5,0.2,3-0.4,4.4c-0.2,0.5-0.6,0.9-1,1.2c-0.3,0.2-0.3,0.4-0.2,0.7c0.6,2.5,1.2,5,1.7,7.5
			C85,42.1,85,42.2,85,42.5z M79.3,29.8c0,0.7,0,1.4,0,2.1c0,0.1,0.1,0.4,0.2,0.4c0.7,0.3,1.6-0.1,1.9-0.8c0.4-0.8,0.5-1.7,0.3-2.6
			c-0.2-1.2-0.8-1.6-2-1.6c-0.3,0-0.5,0.1-0.5,0.5C79.3,28.5,79.3,29.1,79.3,29.8z"/>
		<path d="M135.5,42.4c-1,0-2,0-2.9,0c-0.1,0-0.3-0.3-0.3-0.5c-0.2-1.1-0.5-2.3-0.7-3.4c-0.2-1.1-0.4-2.2-0.6-3.3
			c-0.1-0.5-0.5-0.4-0.8-0.4c-0.4,0-0.3,0.3-0.3,0.5c0,2.2,0,4.3,0,6.5c0,0.5-0.1,0.7-0.6,0.6c-0.7,0-1.3,0-2,0
			c-0.5,0-0.6-0.1-0.6-0.6c0-1.9,0-3.9,0-5.8c0-3.5,0-7,0-10.6c0-0.5,0.2-0.7,0.7-0.7c1.4,0,2.9,0,4.3,0c0.9,0,1.7,0.3,2.4,0.8
			c0.9,0.6,1.3,1.5,1.5,2.6c0.2,1.4,0.2,2.9-0.4,4.3c-0.2,0.5-0.7,0.9-1.1,1.3c-0.2,0.2-0.3,0.3-0.3,0.6c0.6,2.5,1.2,5,1.8,7.5
			C135.5,42.1,135.5,42.2,135.5,42.4z M129.8,29.8c0,0.3,0,0.7,0,1c0,0.3,0,0.7,0,1c0,0.1,0.1,0.4,0.2,0.4c0.7,0.2,1.6-0.2,2-0.9
			c0.4-0.8,0.4-1.7,0.3-2.5c-0.2-1.2-0.8-1.6-2-1.6c-0.3,0-0.4,0.1-0.4,0.4C129.8,28.4,129.8,29.1,129.8,29.8z"/>
		<path d="M59.9,33.6c0-2.7,0-5.5,0-8.2c0-0.5,0.2-0.7,0.7-0.6c1.1,0,2.3,0,3.4,0c2.7,0,4.2,1.6,4.6,4.1c0.4,2.6,0.2,5.2,0.1,7.7
			c0,1.3-0.4,2.7-1.1,3.8c-0.7,1.2-1.8,1.8-3.2,1.9c-1.4,0.1-2.7,0-4.1,0c-0.4,0-0.4-0.3-0.4-0.6C59.9,39.1,59.9,36.4,59.9,33.6z
			 M63.1,33.5c0,1.8,0,3.7,0,5.5c0,0.8,0.5,1.1,1.2,0.7c0.2-0.1,0.4-0.4,0.6-0.6c0.4-0.7,0.6-1.5,0.6-2.4c0-1.6,0-3.2,0-4.8
			c0-1-0.1-2-0.2-2.9c-0.1-0.9-0.7-1.5-1.6-1.6c-0.5-0.1-0.6,0.1-0.6,0.6C63.1,29.8,63.1,31.6,63.1,33.5z"/>
		<path d="M99.6,33.5c0,1.4,0,2.8,0,4.1c0,0.4,0.1,0.9,0.2,1.3c0.1,0.6,0.5,0.8,1,0.9c0.5,0,1-0.3,1.1-0.8c0.1-0.8,0.2-1.7,0.2-2.6
			c0-0.5,0.1-0.7,0.7-0.7c0.6,0,1.2,0,1.8,0c0.1,0,0.4,0.2,0.4,0.3c0,1.7,0,3.3-0.9,4.8c-0.9,1.4-2.1,2.1-3.7,2
			c-1.5-0.1-2.5-0.9-3.2-2.2c-0.8-1.5-1-3-1-4.7c0-2,0.1-4.1,0.2-6.1c0.1-1.2,0.4-2.3,1-3.4c1.4-2.4,4.6-2.8,6.3-0.8
			c0.6,0.7,0.9,1.6,1.1,2.5c0.1,0.7,0.2,1.4,0.2,2.1c0,0.4-0.1,0.6-0.5,0.6c-0.7,0-1.3,0-2,0c-0.4,0-0.5-0.2-0.6-0.6
			c0-0.8-0.1-1.6-0.2-2.4c-0.1-0.6-0.5-0.8-1-0.8c-0.5,0-0.8,0.3-0.9,0.9c-0.1,1.1-0.2,2.2-0.3,3.2C99.5,31.9,99.5,32.7,99.6,33.5
			C99.5,33.5,99.6,33.5,99.6,33.5z"/>
		<path d="M90.1,32.1c0.9,0,1.7,0,2.5,0c0.4,0,0.6,0.1,0.6,0.6c0,0.5,0,1.1,0,1.7c0,0.4-0.2,0.5-0.5,0.5c-0.7,0-1.4,0-2.1,0
			c-0.2,0-0.4,0-0.4,0.3c0,1.6,0,3.1,0,4.7c0,0,0,0.1,0.1,0.2c1.1,0,2.3,0,3.5,0c0.7,0,0.8,0,0.8,0.7c0,0.4,0,0.8,0,1.2
			c0,0.3-0.1,0.5-0.4,0.5c-2.2,0-4.4,0-6.6,0c-0.4,0-0.4-0.2-0.4-0.5c0-2.4,0-4.7,0-7.1c0-3.1,0-6.2,0-9.4c0-0.5,0.1-0.7,0.6-0.7
			c2,0,4.1,0,6.1,0c0.4,0,0.6,0.1,0.6,0.6c0,0.5,0,0.9,0,1.4c0,0.4-0.1,0.5-0.5,0.5c-1.1,0-2.1,0-3.2,0c-0.2,0-0.4,0-0.4,0.3
			C90.1,29.1,90.1,30.5,90.1,32.1z"/>
		<path d="M140.7,32c0.5-1.9,0.9-3.8,1.4-5.6c0.5-1.8,0-1.5,1.9-1.5c0.3,0,0.7,0,1.1,0c-0.2,0.7-0.3,1.3-0.5,1.9
			c-0.7,2.6-1.5,5.3-2.2,7.9c-0.2,0.7-0.3,1.5-0.3,2.3c0,1.6,0,3.3,0,4.9c0,0.4-0.1,0.6-0.6,0.6c-0.7,0-1.4,0-2,0
			c-0.4,0-0.6-0.1-0.6-0.6c0-1.5,0-2.9,0-4.4c0.1-1.4-0.3-2.8-0.6-4.1c-0.6-2.3-1.2-4.6-1.8-6.8c-0.1-0.5-0.3-1.1-0.4-1.7
			c0.2,0,0.4,0,0.6,0c0.6,0,1.2,0,1.8,0c0.8,0,0.8,0,0.9,0.8c0.3,1.4,0.6,2.9,0.9,4.3C140.5,30.6,140.6,31.2,140.7,32z"/>
		<path d="M108.6,27.3c-0.8,0-1.6,0-2.3,0c-0.4,0-0.5-0.1-0.5-0.5c0-0.5,0-1,0-1.5c0-0.3,0.1-0.5,0.4-0.5c2.7,0,5.4,0,8,0
			c0.3,0,0.5,0.1,0.5,0.5c0,0.5,0,1,0,1.5c0,0.3-0.2,0.5-0.5,0.5c-0.6,0-1.2,0-1.8,0c-0.5,0-0.6,0.1-0.6,0.6c0,4.6,0,9.2,0,13.8
			c0,0.8,0,0.8-0.8,0.8c-0.6,0-1.1,0-1.7,0c-0.7,0-0.7,0-0.7-0.7c0-2.4,0-4.8,0-7.2c0-2.3,0-4.6,0-6.9
			C108.6,27.5,108.6,27.4,108.6,27.3z"/>
		<path d="M74,33.6c0,2.7,0,5.4,0,8.2c0,0.5-0.1,0.7-0.6,0.7c-0.6,0-1.3,0-1.9,0c-0.5,0-0.7-0.1-0.7-0.6c0-3.3,0-6.5,0-9.8
			c0-2.2,0-4.4,0-6.6c0-0.5,0.1-0.7,0.6-0.7c0.7,0,1.3,0,2,0c0.5,0,0.6,0.1,0.6,0.6C74,28.2,74,30.9,74,33.6z"/>
	</g>
</g>
<rect x="1.3" y="1.5" class="st2" width="50.6" height="44.3"/>
</svg>
