<?xml version="1.0" encoding="utf-8"?>
<!-- Generator: Adobe Illustrator 24.3.0, SVG Export Plug-In . SVG Version: 6.00 Build 0)  -->
<svg version="1.1" id="Layer_1" xmlns="http://www.w3.org/2000/svg" xmlns:xlink="http://www.w3.org/1999/xlink" x="0px" y="0px"
	 viewBox="0 0 114 47.23" style="enable-background:new 0 0 114 47.23;" xml:space="preserve">
<style type="text/css">
	.st0{fill-rule:evenodd;clip-rule:evenodd;fill:#F8DD14;}
</style>
<g>
	<path d="M56.48,4.78h2.35v12.58c0,1.28,0.12,2.14,0.35,2.56c0.24,0.42,0.71,0.63,1.41,0.63c0.7,0,1.16-0.18,1.38-0.55
		c0.23-0.38,0.35-1.14,0.35-2.29V4.78h2.35v12.93c0,1.94-0.3,3.25-0.89,3.93c-0.71,0.78-1.79,1.16-3.24,1.16
		c-1.6,0-2.73-0.5-3.38-1.5c-0.45-0.68-0.68-2-0.68-3.94V4.78z"/>
	<path d="M72.75,5.15v2.34c-0.73-0.52-1.39-0.78-1.97-0.78c-0.63,0-1.15,0.22-1.55,0.67c-0.4,0.42-0.6,0.99-0.6,1.7
		c0,0.62,0.14,1.16,0.43,1.6c0.15,0.24,0.39,0.55,0.72,0.92c0.33,0.38,0.77,0.83,1.3,1.36c0.98,0.99,1.64,1.85,1.99,2.57
		c0.35,0.7,0.53,1.56,0.53,2.57c0,1.38-0.39,2.51-1.16,3.4c-0.78,0.87-1.77,1.3-2.99,1.3c-1.02,0-1.9-0.28-2.62-0.84v-2.38
		c0.85,0.62,1.63,0.93,2.33,0.93c0.65,0,1.16-0.22,1.53-0.65c0.37-0.43,0.55-1.02,0.55-1.77c0-0.65-0.14-1.23-0.43-1.74
		c-0.15-0.25-0.35-0.53-0.61-0.85c-0.26-0.32-0.59-0.67-0.98-1.07c-0.61-0.6-1.11-1.13-1.51-1.59c-0.4-0.46-0.7-0.86-0.89-1.21
		c-0.37-0.68-0.55-1.53-0.55-2.56c0-1.39,0.36-2.49,1.08-3.31c0.73-0.82,1.71-1.23,2.94-1.23C71.16,4.54,71.98,4.75,72.75,5.15z"/>
	<path d="M75.03,4.78h6.38v2.03h-3.98v5.64h3.53v2.03h-3.53v6.08h3.98v2.03h-6.38V4.78z"/>
	<path d="M83.02,4.78h3.16c1.31,0,2.28,0.31,2.92,0.93c0.81,0.81,1.21,2.04,1.21,3.7c0,1.28-0.21,2.3-0.64,3.07
		s-1.04,1.25-1.83,1.44l3.28,8.66h-2.43l-3.26-8.72v8.72h-2.4V4.78z M85.42,12.67c0.93,0,1.59-0.22,1.97-0.65
		c0.38-0.43,0.58-1.16,0.58-2.18c0-0.55-0.04-1.03-0.12-1.42s-0.21-0.71-0.38-0.96c-0.17-0.25-0.4-0.43-0.67-0.54
		c-0.27-0.12-0.6-0.17-0.97-0.17h-0.4V12.67z"/>
</g>
<g>
	<path d="M56.48,24.62h2.4v15.77h3.92v2.03h-6.32V24.62z"/>
	<path d="M72.62,33.96c0,3.14-0.35,5.38-1.05,6.7c-0.7,1.32-1.87,1.98-3.52,1.98c-1.73,0-2.95-0.71-3.66-2.13
		c-0.7-1.39-1.05-3.86-1.05-7.41c0-3.17,0.35-5.41,1.04-6.72c0.7-1.32,1.88-1.98,3.55-1.98c1.49,0,2.6,0.51,3.32,1.53
		c0.48,0.68,0.82,1.66,1.04,2.92C72.51,30,72.62,31.71,72.62,33.96z M70.1,34.21c0-3.08-0.14-5.13-0.42-6.13
		c-0.28-1.01-0.84-1.52-1.69-1.52c-0.85,0-1.42,0.47-1.71,1.4c-0.28,0.94-0.41,2.82-0.41,5.65c0,2.61,0.15,4.41,0.44,5.42
		c0.3,0.95,0.86,1.43,1.68,1.43c0.81,0,1.36-0.45,1.66-1.34C69.95,38.23,70.1,36.59,70.1,34.21z"/>
	<path d="M83.31,33.96c0,3.14-0.35,5.38-1.05,6.7c-0.7,1.32-1.87,1.98-3.52,1.98c-1.73,0-2.95-0.71-3.66-2.13
		c-0.7-1.39-1.05-3.86-1.05-7.41c0-3.17,0.35-5.41,1.04-6.72c0.7-1.32,1.88-1.98,3.55-1.98c1.49,0,2.6,0.51,3.32,1.53
		c0.48,0.68,0.82,1.66,1.04,2.92C83.21,30,83.31,31.71,83.31,33.96z M80.8,34.21c0-3.08-0.14-5.13-0.41-6.13
		c-0.28-1.01-0.84-1.52-1.7-1.52c-0.85,0-1.42,0.47-1.71,1.4c-0.28,0.94-0.42,2.82-0.42,5.65c0,2.61,0.15,4.41,0.44,5.42
		c0.3,0.95,0.86,1.43,1.68,1.43c0.81,0,1.36-0.45,1.66-1.34C80.65,38.23,80.8,36.59,80.8,34.21z"/>
	<path d="M85.1,24.62h2.4v8.62l3.34-8.62h2.42l-3.51,8.62l3.78,9.18h-2.7l-3.34-9.18v9.18h-2.4V24.62z"/>
	<path d="M94.45,24.62h2.35V37.2c0,1.28,0.12,2.14,0.35,2.56c0.24,0.42,0.71,0.63,1.41,0.63c0.7,0,1.16-0.18,1.38-0.55
		c0.23-0.38,0.35-1.14,0.35-2.29V24.62h2.35v12.93c0,1.94-0.3,3.25-0.89,3.93c-0.71,0.78-1.79,1.16-3.24,1.16
		c-1.6,0-2.73-0.5-3.38-1.5c-0.45-0.68-0.68-2-0.68-3.94V24.62z"/>
	<path d="M104.79,24.62h3.16c1.52,0,2.63,0.38,3.32,1.15c0.69,0.78,1.04,2.01,1.04,3.69c0,2.37-0.7,3.9-2.09,4.59
		c-0.7,0.32-1.71,0.47-3.03,0.47v7.9h-2.4V24.62z M107.19,32.47c0.99,0,1.68-0.2,2.05-0.6c0.38-0.41,0.58-1.13,0.58-2.17
		c0-1.06-0.19-1.84-0.55-2.33c-0.37-0.49-0.95-0.74-1.74-0.74h-0.33V32.47z"/>
</g>
<g id="Page-1">
	<g id="home" transform="translate(-160.000000, -32.000000)">
		<g id="Logo-Copy" transform="translate(160.000000, 32.000000)">
			<path id="Fill-1" class="st0" d="M1.3,45.75h50.58V1.48H1.3V45.75z M25.51,15.15c-0.03,1.94-0.03,3.78-1.67,5.49
				c-2,2.1-5.72,2.8-8.65,2.8c-1.37,0-2.74-0.13-4.08-0.44c-0.93-0.21-2.14-0.57-3.34-1.32c-3.04-1.94-3.07-4.35-3.07-6.53V4.53
				h4.82v10.75c0,1.63,0.35,3,2.19,3.83c1.56,0.7,2.96,0.65,4.38,0.6c1.83-0.16,3.01-0.62,3.78-1.45c0.46-0.52,0.88-1.11,0.82-2.95
				V4.53h4.82V15.15L25.51,15.15z M25.69,37.4c0,1.06-0.26,2.18-0.91,3.08c-1.57,2.15-4.17,2.15-6.13,2.18H4.81V24.37h13.07
				c2.08,0.05,4.62,0.1,5.99,1.89c0.71,0.93,0.8,1.94,0.8,2.59c0,0.49-0.06,1.53-0.8,2.44c-0.83,0.98-1.91,1.3-2.54,1.45
				C22.58,33.05,25.69,33.74,25.69,37.4L25.69,37.4z M42.69,15.18l5.86,7.64h-5.69l-5.18-7.36h-5.5v7.36h-4.85V4.53h13.31
				c2.19,0,4.19,0.18,5.8,1.94c0.99,1.09,1.26,2.46,1.26,3.52c0,1.4-0.49,3.06-1.86,4.04C44.8,14.79,43.46,15.05,42.69,15.18
				L42.69,15.18z M48.66,42.69h-4.79l-9.58-10.31c-1.01-1.11-1.42-1.58-2.49-2.88c0.14,1.4,0.14,1.71,0.16,3.11v10.08h-4.6V24.39
				h4.82l9.47,10.18c1.15,1.27,1.37,1.53,2.57,2.95c-0.16-1.74-0.16-2.2-0.19-3.78v-9.35h4.63V42.69L48.66,42.69z M42.8,10.05
				c0-0.36-0.05-0.99-0.38-1.43c-0.36-0.44-0.82-0.88-2.74-0.88h-7.5v4.48h7.72C40.94,12.22,42.8,12.09,42.8,10.05L42.8,10.05z
				 M20.64,36.96c0-2.2-1.91-2.2-2.65-2.2H9.8v4.69h7.56C18.5,39.45,20.64,39.47,20.64,36.96L20.64,36.96z M19.84,29.52
				c0-1.94-1.63-1.97-2.43-1.97H9.8v4.02h7.22c0.6,0,1.17-0.03,1.63-0.18C19.84,30.95,19.84,29.73,19.84,29.52L19.84,29.52z"/>
		</g>
	</g>
</g>
</svg>
